<svg width="140" height="47" viewBox="0 0 140 47" fill="none" xmlns="http://www.w3.org/2000/svg">
<rect width="140" height="47" rx="23.5" fill="#FFFEFE"/>
<path d="M31.1985 28V17.0909H35.1935C35.9677 17.0909 36.6087 17.2187 37.1165 17.4744C37.6243 17.7266 38.0043 18.0692 38.2564 18.5025C38.5085 18.9322 38.6346 19.4169 38.6346 19.9567C38.6346 20.4112 38.5511 20.7947 38.3842 21.1072C38.2173 21.4162 37.9936 21.6648 37.7131 21.853C37.4361 22.0376 37.1307 22.1726 36.7969 22.2578V22.3643C37.1591 22.3821 37.5124 22.4993 37.8569 22.7159C38.2049 22.929 38.4925 23.2326 38.7198 23.6268C38.9471 24.021 39.0607 24.5004 39.0607 25.065C39.0607 25.6225 38.9293 26.1232 38.6665 26.5671C38.4073 27.0075 38.006 27.3572 37.4627 27.6165C36.9194 27.8722 36.2251 28 35.38 28H31.1985ZM32.8445 26.5884H35.2202C36.0085 26.5884 36.5732 26.4357 36.9141 26.1303C37.255 25.8249 37.4254 25.4432 37.4254 24.9851C37.4254 24.6406 37.3384 24.3246 37.1644 24.0369C36.9904 23.7493 36.7418 23.5202 36.4187 23.3498C36.0991 23.1793 35.7191 23.0941 35.2788 23.0941H32.8445V26.5884ZM32.8445 21.8104H35.0497C35.419 21.8104 35.7511 21.7393 36.0458 21.5973C36.3441 21.4553 36.5803 21.2564 36.7543 21.0007C36.9318 20.7415 37.0206 20.4361 37.0206 20.0845C37.0206 19.6335 36.8626 19.2553 36.5465 18.9499C36.2305 18.6445 35.7457 18.4918 35.0923 18.4918H32.8445V21.8104ZM46.068 24.6069V19.8182H47.666V28H46.1V26.5831H46.0147C45.8265 27.0199 45.5247 27.3839 45.1092 27.6751C44.6973 27.9627 44.1841 28.1065 43.5698 28.1065C43.0442 28.1065 42.579 27.9911 42.1742 27.7603C41.7729 27.5259 41.4569 27.1797 41.226 26.7216C40.9988 26.2635 40.8851 25.6971 40.8851 25.0224V19.8182H42.4778V24.8306C42.4778 25.3881 42.6323 25.832 42.9412 26.1623C43.2502 26.4925 43.6515 26.6577 44.1451 26.6577C44.4434 26.6577 44.7399 26.5831 45.0346 26.4339C45.3329 26.2848 45.5797 26.0593 45.775 25.7575C45.9739 25.4556 46.0716 25.0721 46.068 24.6069ZM50.8128 31.0682C50.5748 31.0682 50.3582 31.0487 50.1629 31.0096C49.9676 30.9741 49.822 30.935 49.7261 30.8924L50.1096 29.5874C50.4008 29.6655 50.6601 29.6992 50.8873 29.6886C51.1146 29.6779 51.3153 29.5927 51.4893 29.4329C51.6668 29.2731 51.8231 29.0121 51.958 28.6499L52.1551 28.1065L49.1615 19.8182H50.866L52.9381 26.1676H53.0233L55.0954 19.8182H56.8053L53.4335 29.092C53.2773 29.5181 53.0784 29.8786 52.8369 30.1733C52.5954 30.4716 52.3078 30.6953 51.974 30.8445C51.6402 30.9936 51.2531 31.0682 50.8128 31.0682Z" fill="black"/>
<path fill-rule="evenodd" clip-rule="evenodd" d="M78.7411 30.0399C78.7884 30.2651 78.6441 30.486 78.4189 30.5332C76.8955 30.8531 75.6858 31.2351 74.8673 31.649C74.4574 31.8563 74.1666 32.0613 73.9833 32.2535C73.8018 32.4438 73.75 32.5945 73.75 32.7084C73.75 32.8179 73.7978 32.9609 73.9624 33.1409C74.1292 33.3232 74.395 33.519 74.7724 33.7186C75.5263 34.1173 76.6447 34.4891 78.0618 34.8061C80.8892 35.4385 84.8156 35.8334 89.1667 35.8334C93.5177 35.8334 97.4441 35.4385 100.272 34.8061C101.689 34.4891 102.807 34.1173 103.561 33.7186C103.938 33.519 104.204 33.3232 104.371 33.1409C104.536 32.9609 104.583 32.8179 104.583 32.7084C104.583 32.5945 104.531 32.4438 104.35 32.2535C104.167 32.0613 103.876 31.8563 103.466 31.649C102.648 31.2351 101.438 30.8531 99.9144 30.5332C99.6892 30.486 99.5449 30.2651 99.5922 30.0399C99.6395 29.8146 99.8604 29.6704 100.086 29.7177C101.64 30.044 102.93 30.4441 103.842 30.9054C104.298 31.1357 104.68 31.3917 104.953 31.6784C105.228 31.9669 105.417 32.3129 105.417 32.7084C105.417 33.0878 105.243 33.4223 104.986 33.7034C104.731 33.9822 104.374 34.2311 103.951 34.4553C103.102 34.904 101.902 35.2954 100.453 35.6193C97.5504 36.2687 93.5601 36.6667 89.1667 36.6667C84.7732 36.6667 80.7829 36.2687 77.8799 35.6193C76.4317 35.2954 75.2313 34.904 74.3828 34.4553C73.9589 34.2311 73.6026 33.9822 73.3476 33.7034C73.0904 33.4223 72.9167 33.0878 72.9167 32.7084C72.9167 32.3129 73.1051 31.9669 73.3803 31.6784C73.6537 31.3917 74.0358 31.1357 74.4912 30.9054C75.4033 30.4441 76.6936 30.044 78.2477 29.7177C78.4729 29.6704 78.6938 29.8146 78.7411 30.0399Z" fill="#AC7349"/>
<path fill-rule="evenodd" clip-rule="evenodd" d="M101.462 26.9656C101.346 26.7759 101.311 26.5478 101.364 26.332C101.486 25.8396 101.569 25.3273 101.617 24.8047C101.64 24.5591 101.77 24.336 101.973 24.1956C102.176 24.0552 102.43 24.0119 102.668 24.0774C102.879 24.1354 103.102 24.1667 103.333 24.1667C104.714 24.1667 105.833 23.0474 105.833 21.6667C105.833 20.286 104.714 19.1667 103.333 19.1667C103.116 19.1667 102.907 19.1942 102.708 19.2454C102.458 19.3096 102.193 19.2548 101.989 19.097C101.786 18.9391 101.667 18.696 101.667 18.4384V16.7358C101.667 16.3288 101.961 15.9813 102.362 15.914C102.679 15.8609 103.003 15.8333 103.333 15.8333C106.555 15.8333 109.167 18.445 109.167 21.6667C109.167 24.8883 106.555 27.5 103.333 27.5C102.869 27.5 102.416 27.4455 101.981 27.3423C101.765 27.2909 101.578 27.1553 101.462 26.9656ZM103.273 24.9995C102.987 24.9944 102.711 24.9534 102.447 24.8809C102.421 25.1607 102.386 25.4389 102.341 25.7142C102.305 25.9328 102.262 26.1495 102.213 26.3636C102.201 26.4198 102.187 26.4757 102.174 26.5315C102.442 26.5951 102.718 26.6372 103.001 26.6558C103.111 26.663 103.222 26.6667 103.333 26.6667C106.095 26.6667 108.333 24.4281 108.333 21.6667C108.333 18.9053 106.095 16.6667 103.333 16.6667C103.049 16.6667 102.771 16.6903 102.5 16.7358V18.4384C102.766 18.3698 103.046 18.3333 103.333 18.3333C105.174 18.3333 106.667 19.8257 106.667 21.6667C106.667 23.5076 105.174 25 103.333 25C103.313 25 103.293 24.9998 103.273 24.9995Z" fill="#AC7349"/>
<path fill-rule="evenodd" clip-rule="evenodd" d="M76.25 12.9167C76.4801 12.9167 76.6667 13.1032 76.6667 13.3334V23.7537C76.6667 26.662 77.6725 29.4775 80.1927 30.8143C82.2532 31.9074 85.2219 32.9167 89.1667 32.9167C93.1114 32.9167 96.0801 31.9074 98.1406 30.8143C100.661 29.4775 101.667 26.662 101.667 23.7537V13.3334C101.667 13.1032 101.853 12.9167 102.083 12.9167C102.313 12.9167 102.5 13.1032 102.5 13.3334V23.7537C102.5 26.8121 101.44 30.0075 98.5311 31.5505C96.3617 32.7013 93.2599 33.75 89.1667 33.75C85.0734 33.75 81.9716 32.7013 79.8022 31.5505C76.8935 30.0075 75.8333 26.8121 75.8333 23.7537V13.3334C75.8333 13.1032 76.0199 12.9167 76.25 12.9167Z" fill="#AC7349"/>
<path fill-rule="evenodd" clip-rule="evenodd" d="M77.5 15.3163V23.9296C77.5 26.1672 78.2405 28.3997 80.1284 29.6008C82.0419 30.8183 85.0264 32.0833 89.1667 32.0833C93.307 32.0833 96.2914 30.8183 98.205 29.6008C100.093 28.3997 100.833 26.1672 100.833 23.9296V15.3163C99.0276 15.8625 94.485 16.25 89.1667 16.25C83.8483 16.25 79.3058 15.8625 77.5 15.3163Z" fill="#CBF3FF"/>
<path d="M98.205 29.6008C100.093 28.3997 100.833 26.1672 100.833 23.9296V15.3163C99.8598 15.6108 98.0906 15.8591 95.8333 16.0255V30.8261C96.7542 30.4482 97.5435 30.0216 98.205 29.6008Z" fill="#ABE3F4"/>
<path d="M80.1284 29.6008C78.2405 28.3997 77.5 26.1672 77.5 23.9296V15.3163C78.2857 15.554 79.5896 15.7616 81.25 15.9203V30.2468C80.842 30.0349 80.4683 29.8171 80.1284 29.6008Z" fill="#E2F8FF"/>
<path d="M77.5 22.3997V23.9296C77.5 26.1672 78.2405 28.3997 80.1284 29.6008C82.0419 30.8183 85.0264 32.0833 89.1667 32.0833C93.307 32.0833 96.2914 30.8183 98.205 29.6008C100.093 28.3997 100.833 26.1672 100.833 23.9296V22.3997C99.0276 22.9458 94.485 23.3333 89.1667 23.3333C83.8483 23.3333 79.3058 22.9458 77.5 22.3997Z" fill="#75370A"/>
<path d="M98.205 29.6008C100.093 28.3997 100.833 26.1672 100.833 23.9296V22.3997C99.8598 22.6941 98.0906 22.9425 95.8333 23.1088V30.8261C96.7542 30.4482 97.5435 30.0217 98.205 29.6008Z" fill="#572908"/>
<path d="M80.1284 29.6008C78.2405 28.3997 77.5 26.1672 77.5 23.9296V22.3997C78.2857 22.6373 79.5896 22.8449 81.25 23.0036V30.2468C80.842 30.0349 80.4683 29.8171 80.1284 29.6008Z" fill="#8E4917"/>
<path fill-rule="evenodd" clip-rule="evenodd" d="M98.1021 14.9839C95.799 15.2526 92.6402 15.4167 89.1667 15.4167C85.6931 15.4167 82.5343 15.2526 80.2313 14.9839C79.0853 14.8502 78.1209 14.6873 77.4274 14.496C77.0871 14.4021 76.7637 14.2887 76.5079 14.1429C76.3802 14.07 76.2296 13.9671 76.1026 13.8213C75.971 13.67 75.8333 13.4336 75.8333 13.125C75.8333 12.8164 75.971 12.58 76.1026 12.4288C76.2296 12.2829 76.3802 12.18 76.5079 12.1072C76.7637 11.9613 77.0871 11.8479 77.4274 11.754C78.1209 11.5627 79.0853 11.3998 80.2313 11.2661C82.5343 10.9974 85.6931 10.8333 89.1667 10.8333C92.6402 10.8333 95.799 10.9974 98.1021 11.2661C99.248 11.3998 100.212 11.5627 100.906 11.754C101.246 11.8479 101.57 11.9613 101.825 12.1072C101.953 12.18 102.104 12.2829 102.231 12.4288C102.362 12.58 102.5 12.8164 102.5 13.125C102.5 13.4336 102.362 13.67 102.231 13.8213C102.104 13.9671 101.953 14.07 101.825 14.1429C101.57 14.2887 101.246 14.4021 100.906 14.496C100.212 14.6873 99.248 14.8502 98.1021 14.9839ZM89.1667 14.5833C96.0702 14.5833 101.667 13.9304 101.667 13.125C101.667 12.3196 96.0702 11.6667 89.1667 11.6667C82.2631 11.6667 76.6667 12.3196 76.6667 13.125C76.6667 13.9304 82.2631 14.5833 89.1667 14.5833Z" fill="#AC7349"/>
<path fill-rule="evenodd" clip-rule="evenodd" d="M79.1667 16.6667C79.3968 16.6667 79.5833 16.8532 79.5833 17.0834V19.5834C79.5833 19.8135 79.3968 20 79.1667 20C78.9365 20 78.75 19.8135 78.75 19.5834V17.0834C78.75 16.8532 78.9365 16.6667 79.1667 16.6667Z" fill="white"/>
<path d="M100.833 13.125C100.833 13.7003 95.61 14.1667 89.1667 14.1667C82.7233 14.1667 77.5 13.7003 77.5 13.125C77.5 12.5497 82.7233 12.0833 89.1667 12.0833C95.61 12.0833 100.833 12.5497 100.833 13.125Z" fill="#CBF3FF"/>
<path d="M96.25 27.2348C96.25 27.5696 95.9787 27.8409 95.6439 27.8409C95.3092 27.8409 95.0379 27.5696 95.0379 27.2348C95.0379 26.9001 95.3092 26.6288 95.6439 26.6288C95.9787 26.6288 96.25 26.9001 96.25 27.2348Z" fill="#572908"/>
<path d="M94.4318 26.0227C94.4318 26.3575 94.1605 26.6288 93.8258 26.6288C93.491 26.6288 93.2197 26.3575 93.2197 26.0227C93.2197 25.688 93.491 25.4167 93.8258 25.4167C94.1605 25.4167 94.4318 25.688 94.4318 26.0227Z" fill="#572908"/>
<path d="M93.2955 24.3561C93.2955 24.6908 93.0241 24.9621 92.6894 24.9621C92.3547 24.9621 92.0833 24.6908 92.0833 24.3561C92.0833 24.0213 92.3547 23.75 92.6894 23.75C93.0241 23.75 93.2955 24.0213 93.2955 24.3561Z" fill="#572908"/>
<path d="M91.7046 26.3636C91.7046 26.6147 91.5011 26.8182 91.25 26.8182C90.999 26.8182 90.7955 26.6147 90.7955 26.3636C90.7955 26.1126 90.999 25.9091 91.25 25.9091C91.5011 25.9091 91.7046 26.1126 91.7046 26.3636Z" fill="#572908"/>
<path d="M90.9091 24.6212C90.9091 24.8723 90.7056 25.0758 90.4545 25.0758C90.2035 25.0758 90 24.8723 90 24.6212C90 24.3702 90.2035 24.1667 90.4545 24.1667C90.7056 24.1667 90.9091 24.3702 90.9091 24.6212Z" fill="#572908"/>
<path d="M89.6591 27.1212C89.6591 27.3723 89.4556 27.5758 89.2045 27.5758C88.9535 27.5758 88.75 27.3723 88.75 27.1212C88.75 26.8702 88.9535 26.6667 89.2045 26.6667C89.4556 26.6667 89.6591 26.8702 89.6591 27.1212Z" fill="#572908"/>
<path d="M89.6591 30.0379C89.6591 30.2889 89.4556 30.4924 89.2045 30.4924C88.9535 30.4924 88.75 30.2889 88.75 30.0379C88.75 29.7869 88.9535 29.5833 89.2045 29.5833C89.4556 29.5833 89.6591 29.7869 89.6591 30.0379Z" fill="#572908"/>
<path d="M92.0076 30.2651C92.0076 30.5999 91.7362 30.8712 91.4015 30.8712C91.0668 30.8712 90.7955 30.5999 90.7955 30.2651C90.7955 29.9304 91.0668 29.6591 91.4015 29.6591C91.7362 29.6591 92.0076 29.9304 92.0076 30.2651Z" fill="#572908"/>
<path d="M90.9091 28.1818C90.9091 28.4329 90.7056 28.6364 90.4545 28.6364C90.2035 28.6364 90 28.4329 90 28.1818C90 27.9308 90.2035 27.7273 90.4545 27.7273C90.7056 27.7273 90.9091 27.9308 90.9091 28.1818Z" fill="#572908"/>
<path d="M93.8257 28.2954C93.8257 28.7138 93.4866 29.053 93.0682 29.053C92.6498 29.053 92.3106 28.7138 92.3106 28.2954C92.3106 27.8771 92.6498 27.5379 93.0682 27.5379C93.4866 27.5379 93.8257 27.8771 93.8257 28.2954Z" fill="#572908"/>
<path d="M96.5152 24.0909C96.5152 24.5093 96.176 24.8485 95.7576 24.8485C95.3392 24.8485 95 24.5093 95 24.0909C95 23.6725 95.3392 23.3333 95.7576 23.3333C96.176 23.3333 96.5152 23.6725 96.5152 24.0909Z" fill="#572908"/>
<path d="M95.6439 29.3561C95.6439 29.6908 95.3726 29.9621 95.0379 29.9621C94.7032 29.9621 94.4318 29.6908 94.4318 29.3561C94.4318 29.0213 94.7032 28.75 95.0379 28.75C95.3726 28.75 95.6439 29.0213 95.6439 29.3561Z" fill="#572908"/>
</svg>
