<svg width="241" height="47" viewBox="0 0 241 47" fill="none" xmlns="http://www.w3.org/2000/svg">
<rect width="241" height="47" rx="23.5" fill="#FFFEFE"/>
<path d="M208.413 7.457L195.921 16.7351L198.231 11.2611L208.413 7.457Z" fill="#E2761B" stroke="#E2761B" stroke-linecap="round" stroke-linejoin="round"/>
<path d="M179.574 7.457L191.966 16.823L189.769 11.2611L179.574 7.457Z" fill="#E4761B" stroke="#E4761B" stroke-linecap="round" stroke-linejoin="round"/>
<path d="M203.918 28.9636L200.591 34.0609L207.71 36.0195L209.756 29.0766L203.918 28.9636Z" fill="#E4761B" stroke="#E4761B" stroke-linecap="round" stroke-linejoin="round"/>
<path d="M178.256 29.0766L180.29 36.0195L187.409 34.0609L184.082 28.9636L178.256 29.0766Z" fill="#E4761B" stroke="#E4761B" stroke-linecap="round" stroke-linejoin="round"/>
<path d="M187.007 20.3509L185.023 23.3515L192.092 23.6654L191.841 16.0697L187.007 20.3509Z" fill="#E4761B" stroke="#E4761B" stroke-linecap="round" stroke-linejoin="round"/>
<path d="M200.981 20.3509L196.084 15.9818L195.921 23.6654L202.977 23.3515L200.981 20.3509Z" fill="#E4761B" stroke="#E4761B" stroke-linecap="round" stroke-linejoin="round"/>
<path d="M187.409 34.0609L191.652 31.9893L187.986 29.1268L187.409 34.0609Z" fill="#E4761B" stroke="#E4761B" stroke-linecap="round" stroke-linejoin="round"/>
<path d="M196.335 31.9893L200.591 34.0609L200.001 29.1268L196.335 31.9893Z" fill="#E4761B" stroke="#E4761B" stroke-linecap="round" stroke-linejoin="round"/>
<path d="M200.591 34.0609L196.335 31.9893L196.674 34.764L196.637 35.9316L200.591 34.0609Z" fill="#D7C1B3" stroke="#D7C1B3" stroke-linecap="round" stroke-linejoin="round"/>
<path d="M187.409 34.0609L191.363 35.9316L191.338 34.764L191.652 31.9893L187.409 34.0609Z" fill="#D7C1B3" stroke="#D7C1B3" stroke-linecap="round" stroke-linejoin="round"/>
<path d="M191.426 27.2938L187.886 26.2517L190.384 25.1092L191.426 27.2938Z" fill="#233447" stroke="#233447" stroke-linecap="round" stroke-linejoin="round"/>
<path d="M196.561 27.2938L197.603 25.1092L200.114 26.2517L196.561 27.2938Z" fill="#233447" stroke="#233447" stroke-linecap="round" stroke-linejoin="round"/>
<path d="M187.409 34.0609L188.011 28.9636L184.082 29.0766L187.409 34.0609Z" fill="#CD6116" stroke="#CD6116" stroke-linecap="round" stroke-linejoin="round"/>
<path d="M199.989 28.9636L200.591 34.0609L203.918 29.0766L199.989 28.9636Z" fill="#CD6116" stroke="#CD6116" stroke-linecap="round" stroke-linejoin="round"/>
<path d="M202.977 23.3515L195.921 23.6654L196.574 27.2938L197.616 25.1092L200.127 26.2517L202.977 23.3515Z" fill="#CD6116" stroke="#CD6116" stroke-linecap="round" stroke-linejoin="round"/>
<path d="M187.886 26.2517L190.397 25.1092L191.426 27.2938L192.092 23.6654L185.023 23.3515L187.886 26.2517Z" fill="#CD6116" stroke="#CD6116" stroke-linecap="round" stroke-linejoin="round"/>
<path d="M185.023 23.3515L187.986 29.1268L187.886 26.2517L185.023 23.3515Z" fill="#E4751F" stroke="#E4751F" stroke-linecap="round" stroke-linejoin="round"/>
<path d="M200.127 26.2517L200.001 29.1268L202.977 23.3515L200.127 26.2517Z" fill="#E4751F" stroke="#E4751F" stroke-linecap="round" stroke-linejoin="round"/>
<path d="M192.092 23.6654L191.426 27.2938L192.255 31.575L192.443 25.9378L192.092 23.6654Z" fill="#E4751F" stroke="#E4751F" stroke-linecap="round" stroke-linejoin="round"/>
<path d="M195.921 23.6654L195.582 25.9253L195.733 31.575L196.574 27.2938L195.921 23.6654Z" fill="#E4751F" stroke="#E4751F" stroke-linecap="round" stroke-linejoin="round"/>
<path d="M196.574 27.2938L195.733 31.575L196.335 31.9893L200.001 29.1268L200.127 26.2517L196.574 27.2938Z" fill="#F6851B" stroke="#F6851B" stroke-linecap="round" stroke-linejoin="round"/>
<path d="M187.886 26.2517L187.986 29.1268L191.652 31.9893L192.255 31.575L191.426 27.2938L187.886 26.2517Z" fill="#F6851B" stroke="#F6851B" stroke-linecap="round" stroke-linejoin="round"/>
<path d="M196.637 35.9316L196.674 34.764L196.36 34.4878H191.627L191.338 34.764L191.363 35.9316L187.409 34.0609L188.79 35.1908L191.589 37.1368H196.398L199.21 35.1908L200.591 34.0609L196.637 35.9316Z" fill="#C0AD9E" stroke="#C0AD9E" stroke-linecap="round" stroke-linejoin="round"/>
<path d="M196.335 31.9893L195.733 31.575H192.255L191.652 31.9893L191.338 34.764L191.627 34.4878H196.36L196.674 34.764L196.335 31.9893Z" fill="#161616" stroke="#161616" stroke-linecap="round" stroke-linejoin="round"/>
<path d="M208.94 17.3377L210.008 12.2153L208.413 7.457L196.335 16.4212L200.981 20.3509L207.547 22.2718L209.003 20.5769L208.375 20.1249L209.38 19.2084L208.601 18.6058L209.606 17.8399L208.94 17.3377Z" fill="#763D16" stroke="#763D16" stroke-linecap="round" stroke-linejoin="round"/>
<path d="M177.992 12.2153L179.06 17.3377L178.382 17.8399L179.386 18.6058L178.62 19.2084L179.625 20.1249L178.997 20.5769L180.441 22.2718L187.007 20.3509L191.652 16.4212L179.574 7.457L177.992 12.2153Z" fill="#763D16" stroke="#763D16" stroke-linecap="round" stroke-linejoin="round"/>
<path d="M207.547 22.2718L200.981 20.3509L202.977 23.3515L200.001 29.1268L203.918 29.0766H209.756L207.547 22.2718Z" fill="#F6851B" stroke="#F6851B" stroke-linecap="round" stroke-linejoin="round"/>
<path d="M187.007 20.3509L180.441 22.2718L178.256 29.0766H184.082L187.986 29.1268L185.023 23.3515L187.007 20.3509Z" fill="#F6851B" stroke="#F6851B" stroke-linecap="round" stroke-linejoin="round"/>
<path d="M195.921 23.6654L196.335 16.4212L198.244 11.2611H189.769L191.652 16.4212L192.092 23.6654L192.242 25.9504L192.255 31.575H195.733L195.758 25.9504L195.921 23.6654Z" fill="#F6851B" stroke="#F6851B" stroke-linecap="round" stroke-linejoin="round"/>
<path d="M37.2592 20.6385H35.5973C35.5334 20.2834 35.4144 19.9709 35.2404 19.701C35.0664 19.4311 34.8533 19.2021 34.6012 19.0138C34.3491 18.8256 34.0668 18.6836 33.7543 18.5877C33.4453 18.4918 33.1168 18.4439 32.7688 18.4439C32.1403 18.4439 31.5774 18.6019 31.0803 18.918C30.5866 19.234 30.196 19.6974 29.9084 20.3082C29.6243 20.919 29.4822 21.6648 29.4822 22.5455C29.4822 23.4332 29.6243 24.1825 29.9084 24.7933C30.196 25.4041 30.5884 25.8658 31.0856 26.1783C31.5827 26.4908 32.142 26.647 32.7635 26.647C33.108 26.647 33.4347 26.6009 33.7436 26.5085C34.0561 26.4126 34.3384 26.2724 34.5906 26.0877C34.8427 25.9031 35.0558 25.6776 35.2298 25.4112C35.4073 25.1413 35.5298 24.8324 35.5973 24.4844L37.2592 24.4897C37.1705 25.0259 36.9982 25.5195 36.7425 25.9705C36.4904 26.418 36.1655 26.805 35.7678 27.1317C35.3736 27.4549 34.9226 27.7053 34.4148 27.8828C33.907 28.0604 33.353 28.1491 32.7528 28.1491C31.8082 28.1491 30.9666 27.9254 30.228 27.478C29.4893 27.027 28.907 26.3825 28.4808 25.5444C28.0582 24.7063 27.8469 23.7067 27.8469 22.5455C27.8469 21.3807 28.06 20.381 28.4862 19.5465C28.9123 18.7085 29.4947 18.0657 30.2333 17.6183C30.9719 17.1673 31.8118 16.9418 32.7528 16.9418C33.3317 16.9418 33.8714 17.0252 34.3722 17.1921C34.8764 17.3555 35.3292 17.5969 35.7305 17.9165C36.1317 18.2326 36.4638 18.6197 36.7266 19.0778C36.9893 19.5323 37.1669 20.0526 37.2592 20.6385ZM42.5473 28.1651C41.7803 28.1651 41.1109 27.9893 40.5392 27.6378C39.9674 27.2862 39.5235 26.7944 39.2075 26.1623C38.8914 25.5302 38.7334 24.7915 38.7334 23.9464C38.7334 23.0977 38.8914 22.3555 39.2075 21.7198C39.5235 21.0842 39.9674 20.5906 40.5392 20.239C41.1109 19.8874 41.7803 19.7116 42.5473 19.7116C43.3144 19.7116 43.9838 19.8874 44.5555 20.239C45.1272 20.5906 45.5711 21.0842 45.8872 21.7198C46.2032 22.3555 46.3612 23.0977 46.3612 23.9464C46.3612 24.7915 46.2032 25.5302 45.8872 26.1623C45.5711 26.7944 45.1272 27.2862 44.5555 27.6378C43.9838 27.9893 43.3144 28.1651 42.5473 28.1651ZM42.5526 26.8281C43.0498 26.8281 43.4617 26.6967 43.7884 26.4339C44.1151 26.1712 44.3566 25.8214 44.5129 25.3846C44.6727 24.9478 44.7526 24.4666 44.7526 23.9411C44.7526 23.419 44.6727 22.9396 44.5129 22.5028C44.3566 22.0625 44.1151 21.7092 43.7884 21.4428C43.4617 21.1765 43.0498 21.0433 42.5526 21.0433C42.0519 21.0433 41.6365 21.1765 41.3062 21.4428C40.9795 21.7092 40.7362 22.0625 40.5764 22.5028C40.4202 22.9396 40.3421 23.419 40.3421 23.9411C40.3421 24.4666 40.4202 24.9478 40.5764 25.3846C40.7362 25.8214 40.9795 26.1712 41.3062 26.4339C41.6365 26.6967 42.0519 26.8281 42.5526 26.8281ZM49.7317 23.142V28H48.139V19.8182H49.6678V21.1499H49.769C49.9572 20.7166 50.252 20.3686 50.6532 20.1058C51.0581 19.843 51.5676 19.7116 52.182 19.7116C52.7395 19.7116 53.2278 19.8288 53.6468 20.0632C54.0659 20.294 54.3908 20.6385 54.6216 21.0966C54.8525 21.5547 54.9679 22.1211 54.9679 22.7958V28H53.3752V22.9876C53.3752 22.3945 53.2207 21.9311 52.9118 21.5973C52.6028 21.2599 52.1784 21.0913 51.6387 21.0913C51.2694 21.0913 50.9409 21.1712 50.6532 21.331C50.3691 21.4908 50.1436 21.7251 49.9767 22.0341C49.8134 22.3395 49.7317 22.7088 49.7317 23.142ZM58.6966 23.142V28H57.1039V19.8182H58.6326V21.1499H58.7338C58.9221 20.7166 59.2168 20.3686 59.6181 20.1058C60.0229 19.843 60.5325 19.7116 61.1468 19.7116C61.7044 19.7116 62.1926 19.8288 62.6117 20.0632C63.0307 20.294 63.3556 20.6385 63.5865 21.0966C63.8173 21.5547 63.9327 22.1211 63.9327 22.7958V28H62.34V22.9876C62.34 22.3945 62.1855 21.9311 61.8766 21.5973C61.5676 21.2599 61.1433 21.0913 60.6035 21.0913C60.2342 21.0913 59.9057 21.1712 59.6181 21.331C59.334 21.4908 59.1085 21.7251 58.9416 22.0341C58.7782 22.3395 58.6966 22.7088 58.6966 23.142ZM69.595 28.1651C68.7889 28.1651 68.0946 27.9929 67.5123 27.6484C66.9334 27.3004 66.486 26.8121 66.1699 26.1836C65.8574 25.5515 65.7012 24.8111 65.7012 23.9624C65.7012 23.1243 65.8574 22.3857 66.1699 21.7464C66.486 21.1072 66.9263 20.6083 67.4909 20.2496C68.0591 19.891 68.7232 19.7116 69.4831 19.7116C69.9448 19.7116 70.3922 19.788 70.8255 19.9407C71.2587 20.0934 71.6475 20.3331 71.992 20.6598C72.3365 20.9865 72.6081 21.4109 72.807 21.9329C73.0059 22.4513 73.1053 23.0817 73.1053 23.8239V24.3885H66.6014V23.1953H71.5446C71.5446 22.7763 71.4593 22.4052 71.2889 22.082C71.1184 21.7553 70.8787 21.4979 70.5698 21.3097C70.2644 21.1214 69.9057 21.0273 69.4938 21.0273C69.0463 21.0273 68.6557 21.1374 68.3219 21.3576C67.9917 21.5742 67.736 21.8583 67.5549 22.2099C67.3773 22.5579 67.2885 22.9361 67.2885 23.3445V24.2766C67.2885 24.8235 67.3844 25.2887 67.5762 25.6722C67.7715 26.0558 68.0431 26.3487 68.3912 26.5511C68.7392 26.75 69.1458 26.8494 69.611 26.8494C69.9128 26.8494 70.188 26.8068 70.4366 26.7216C70.6852 26.6328 70.9 26.5014 71.0811 26.3274C71.2623 26.1534 71.4007 25.9386 71.4966 25.6829L73.0041 25.9545C72.8833 26.3984 72.6667 26.7873 72.3542 27.1211C72.0453 27.4513 71.6564 27.7088 71.1877 27.8935C70.7225 28.0746 70.1916 28.1651 69.595 28.1651ZM78.3188 28.1651C77.5269 28.1651 76.8451 27.9858 76.2733 27.6271C75.7052 27.2649 75.2684 26.766 74.963 26.1303C74.6576 25.4947 74.5049 24.7667 74.5049 23.9464C74.5049 23.1154 74.6611 22.3821 74.9736 21.7464C75.2861 21.1072 75.7265 20.6083 76.2947 20.2496C76.8628 19.891 77.5322 19.7116 78.3028 19.7116C78.9243 19.7116 79.4782 19.8271 79.9648 20.0579C80.4513 20.2852 80.8437 20.6048 81.142 21.0167C81.4438 21.4286 81.6231 21.9098 81.68 22.4602H80.1299C80.0447 22.0767 79.8493 21.7464 79.5439 21.4695C79.2421 21.1925 78.8373 21.054 78.3295 21.054C77.8856 21.054 77.4967 21.1712 77.1629 21.4055C76.8327 21.6364 76.5752 21.9666 76.3905 22.3963C76.2059 22.8224 76.1135 23.3267 76.1135 23.9091C76.1135 24.5057 76.2041 25.0206 76.3852 25.4538C76.5663 25.8871 76.822 26.2227 77.1523 26.4606C77.4861 26.6985 77.8785 26.8175 78.3295 26.8175C78.6313 26.8175 78.9047 26.7624 79.1498 26.6523C79.3983 26.5387 79.6061 26.3771 79.773 26.1676C79.9434 25.9581 80.0624 25.706 80.1299 25.4112H81.68C81.6231 25.9403 81.4509 26.4126 81.1633 26.8281C80.8756 27.2436 80.4903 27.5703 80.0074 27.8082C79.528 28.0462 78.9651 28.1651 78.3188 28.1651ZM87.2024 19.8182V21.0966H82.7333V19.8182H87.2024ZM83.9318 17.858H85.5245V25.5977C85.5245 25.9066 85.5707 26.1392 85.663 26.2955C85.7553 26.4482 85.8743 26.5529 86.0199 26.6097C86.169 26.663 86.3306 26.6896 86.5046 26.6896C86.6325 26.6896 86.7443 26.6808 86.8402 26.663C86.9361 26.6452 87.0107 26.631 87.0639 26.6204L87.3516 27.9361C87.2592 27.9716 87.1278 28.0071 86.9574 28.0426C86.7869 28.0817 86.5739 28.103 86.3182 28.1065C85.8991 28.1136 85.5085 28.0391 85.1463 27.8828C84.7841 27.7266 84.4911 27.4851 84.2674 27.1584C84.0437 26.8317 83.9318 26.4215 83.9318 25.9279V17.858ZM93.0618 17.0909H95.0593L98.5323 25.571H98.6602L102.133 17.0909H104.131V28H102.565V20.1058H102.463L99.2461 27.984H97.9464L94.729 20.1005H94.6278V28H93.0618V17.0909ZM109.922 28.1651C109.116 28.1651 108.422 27.9929 107.839 27.6484C107.261 27.3004 106.813 26.8121 106.497 26.1836C106.185 25.5515 106.028 24.8111 106.028 23.9624C106.028 23.1243 106.185 22.3857 106.497 21.7464C106.813 21.1072 107.253 20.6083 107.818 20.2496C108.386 19.891 109.05 19.7116 109.81 19.7116C110.272 19.7116 110.719 19.788 111.153 19.9407C111.586 20.0934 111.975 20.3331 112.319 20.6598C112.664 20.9865 112.935 21.4109 113.134 21.9329C113.333 22.4513 113.432 23.0817 113.432 23.8239V24.3885H106.929V23.1953H111.872C111.872 22.7763 111.786 22.4052 111.616 22.082C111.446 21.7553 111.206 21.4979 110.897 21.3097C110.592 21.1214 110.233 21.0273 109.821 21.0273C109.373 21.0273 108.983 21.1374 108.649 21.3576C108.319 21.5742 108.063 21.8583 107.882 22.2099C107.704 22.5579 107.616 22.9361 107.616 23.3445V24.2766C107.616 24.8235 107.712 25.2887 107.903 25.6722C108.099 26.0558 108.37 26.3487 108.718 26.5511C109.066 26.75 109.473 26.8494 109.938 26.8494C110.24 26.8494 110.515 26.8068 110.764 26.7216C111.012 26.6328 111.227 26.5014 111.408 26.3274C111.589 26.1534 111.728 25.9386 111.824 25.6829L113.331 25.9545C113.21 26.3984 112.994 26.7873 112.681 27.1211C112.372 27.4513 111.984 27.7088 111.515 27.8935C111.05 28.0746 110.519 28.1651 109.922 28.1651ZM119.019 19.8182V21.0966H114.55V19.8182H119.019ZM115.748 17.858H117.341V25.5977C117.341 25.9066 117.387 26.1392 117.479 26.2955C117.572 26.4482 117.691 26.5529 117.836 26.6097C117.985 26.663 118.147 26.6896 118.321 26.6896C118.449 26.6896 118.561 26.6808 118.657 26.663C118.752 26.6452 118.827 26.631 118.88 26.6204L119.168 27.9361C119.076 27.9716 118.944 28.0071 118.774 28.0426C118.603 28.0817 118.39 28.103 118.135 28.1065C117.716 28.1136 117.325 28.0391 116.963 27.8828C116.6 27.7266 116.308 27.4851 116.084 27.1584C115.86 26.8317 115.748 26.4215 115.748 25.9279V17.858ZM123.162 28.1811C122.643 28.1811 122.174 28.0852 121.755 27.8935C121.336 27.6982 121.004 27.4158 120.759 27.0465C120.518 26.6772 120.397 26.2244 120.397 25.6882C120.397 25.2266 120.486 24.8466 120.663 24.5483C120.841 24.25 121.081 24.0138 121.383 23.8398C121.684 23.6658 122.022 23.5344 122.395 23.4457C122.767 23.3569 123.147 23.2894 123.535 23.2433C124.025 23.1864 124.422 23.1403 124.728 23.1048C125.033 23.0657 125.255 23.0036 125.394 22.9183C125.532 22.8331 125.601 22.6946 125.601 22.5028V22.4656C125.601 22.0004 125.47 21.6399 125.207 21.3842C124.948 21.1286 124.561 21.0007 124.046 21.0007C123.51 21.0007 123.087 21.1197 122.778 21.3576C122.473 21.592 122.261 21.853 122.144 22.1406L120.647 21.7997C120.825 21.3026 121.084 20.9013 121.425 20.5959C121.77 20.2869 122.166 20.0632 122.613 19.9247C123.06 19.7827 123.531 19.7116 124.025 19.7116C124.351 19.7116 124.698 19.7507 125.063 19.8288C125.433 19.9034 125.777 20.0419 126.097 20.2443C126.42 20.4467 126.684 20.7362 126.89 21.1126C127.096 21.4854 127.199 21.9702 127.199 22.5668V28H125.644V26.8814H125.58C125.477 27.0874 125.323 27.2898 125.117 27.4886C124.911 27.6875 124.646 27.8526 124.323 27.984C124 28.1154 123.613 28.1811 123.162 28.1811ZM123.508 26.9027C123.948 26.9027 124.325 26.8157 124.637 26.6417C124.953 26.4677 125.193 26.2404 125.356 25.9599C125.523 25.6758 125.607 25.3722 125.607 25.049V23.9943C125.55 24.0511 125.44 24.1044 125.276 24.1541C125.117 24.2003 124.934 24.2411 124.728 24.2766C124.522 24.3086 124.321 24.3388 124.126 24.3672C123.93 24.392 123.767 24.4134 123.636 24.4311C123.327 24.4702 123.044 24.5359 122.789 24.6282C122.537 24.7205 122.334 24.8537 122.182 25.0277C122.032 25.1982 121.958 25.4254 121.958 25.7095C121.958 26.1037 122.103 26.402 122.395 26.6044C122.686 26.8033 123.057 26.9027 123.508 26.9027ZM129.321 28V19.8182H130.849V21.1499H130.951C131.121 20.6989 131.4 20.3473 131.787 20.0952C132.174 19.8395 132.637 19.7116 133.177 19.7116C133.724 19.7116 134.182 19.8395 134.551 20.0952C134.924 20.3509 135.2 20.7024 135.377 21.1499H135.462C135.658 20.7131 135.968 20.3651 136.395 20.1058C136.821 19.843 137.328 19.7116 137.918 19.7116C138.66 19.7116 139.266 19.9442 139.734 20.4094C140.207 20.8746 140.443 21.576 140.443 22.5135V28H138.85V22.6626C138.85 22.1087 138.699 21.7074 138.397 21.4588C138.096 21.2102 137.735 21.0859 137.316 21.0859C136.798 21.0859 136.395 21.2457 136.107 21.5653C135.819 21.8814 135.675 22.288 135.675 22.7852V28H134.088V22.5614C134.088 22.1175 133.95 21.7607 133.673 21.4908C133.396 21.2209 133.035 21.0859 132.591 21.0859C132.289 21.0859 132.011 21.1658 131.755 21.3256C131.503 21.4819 131.299 21.7003 131.142 21.9808C130.99 22.2614 130.913 22.5863 130.913 22.9556V28H129.321ZM144.959 28.1811C144.44 28.1811 143.971 28.0852 143.552 27.8935C143.133 27.6982 142.801 27.4158 142.556 27.0465C142.315 26.6772 142.194 26.2244 142.194 25.6882C142.194 25.2266 142.283 24.8466 142.46 24.5483C142.638 24.25 142.878 24.0138 143.179 23.8398C143.481 23.6658 143.819 23.5344 144.191 23.4457C144.564 23.3569 144.944 23.2894 145.331 23.2433C145.821 23.1864 146.219 23.1403 146.525 23.1048C146.83 23.0657 147.052 23.0036 147.19 22.9183C147.329 22.8331 147.398 22.6946 147.398 22.5028V22.4656C147.398 22.0004 147.267 21.6399 147.004 21.3842C146.745 21.1286 146.358 21.0007 145.843 21.0007C145.307 21.0007 144.884 21.1197 144.575 21.3576C144.27 21.592 144.058 21.853 143.941 22.1406L142.444 21.7997C142.622 21.3026 142.881 20.9013 143.222 20.5959C143.566 20.2869 143.962 20.0632 144.41 19.9247C144.857 19.7827 145.328 19.7116 145.821 19.7116C146.148 19.7116 146.494 19.7507 146.86 19.8288C147.229 19.9034 147.574 20.0419 147.894 20.2443C148.217 20.4467 148.481 20.7362 148.687 21.1126C148.893 21.4854 148.996 21.9702 148.996 22.5668V28H147.441V26.8814H147.377C147.274 27.0874 147.119 27.2898 146.913 27.4886C146.707 27.6875 146.443 27.8526 146.12 27.984C145.797 28.1154 145.41 28.1811 144.959 28.1811ZM145.305 26.9027C145.745 26.9027 146.122 26.8157 146.434 26.6417C146.75 26.4677 146.99 26.2404 147.153 25.9599C147.32 25.6758 147.403 25.3722 147.403 25.049V23.9943C147.347 24.0511 147.237 24.1044 147.073 24.1541C146.913 24.2003 146.731 24.2411 146.525 24.2766C146.319 24.3086 146.118 24.3388 145.923 24.3672C145.727 24.392 145.564 24.4134 145.433 24.4311C145.124 24.4702 144.841 24.5359 144.586 24.6282C144.334 24.7205 144.131 24.8537 143.978 25.0277C143.829 25.1982 143.755 25.4254 143.755 25.7095C143.755 26.1037 143.9 26.402 144.191 26.6044C144.483 26.8033 144.854 26.9027 145.305 26.9027ZM157.249 21.8157L155.805 22.0714C155.745 21.8867 155.649 21.7109 155.517 21.544C155.39 21.3771 155.216 21.2404 154.995 21.1339C154.775 21.0273 154.5 20.9741 154.17 20.9741C153.719 20.9741 153.342 21.0753 153.04 21.2777C152.739 21.4766 152.588 21.734 152.588 22.0501C152.588 22.3235 152.689 22.5437 152.891 22.7106C153.094 22.8775 153.42 23.0142 153.871 23.1207L155.171 23.419C155.924 23.593 156.485 23.8612 156.854 24.2234C157.224 24.5856 157.408 25.0561 157.408 25.6349C157.408 26.125 157.266 26.5618 156.982 26.9453C156.702 27.3253 156.309 27.6236 155.805 27.8402C155.304 28.0568 154.724 28.1651 154.063 28.1651C153.147 28.1651 152.4 27.9698 151.821 27.5792C151.242 27.185 150.887 26.6257 150.755 25.9013L152.295 25.6669C152.391 26.0682 152.588 26.3718 152.886 26.5778C153.184 26.7802 153.573 26.8814 154.053 26.8814C154.575 26.8814 154.992 26.7731 155.304 26.5565C155.617 26.3363 155.773 26.0682 155.773 25.7521C155.773 25.4964 155.677 25.2816 155.485 25.1076C155.297 24.9336 155.008 24.8022 154.617 24.7134L153.232 24.4098C152.469 24.2358 151.904 23.9588 151.538 23.5788C151.176 23.1989 150.995 22.7177 150.995 22.1353C150.995 21.6523 151.13 21.2298 151.4 20.8675C151.67 20.5053 152.043 20.223 152.518 20.0206C152.994 19.8146 153.539 19.7116 154.154 19.7116C155.038 19.7116 155.734 19.9034 156.242 20.2869C156.75 20.6669 157.085 21.1765 157.249 21.8157ZM160.624 25.2248L160.614 23.2805H160.891L164.151 19.8182H166.058L162.34 23.7599H162.089L160.624 25.2248ZM159.16 28V17.0909H160.752V28H159.16ZM164.326 28L161.397 24.1115L162.494 22.9982L166.281 28H164.326Z" fill="black"/>
</svg>
